<svg width="1440" height="409" viewBox="0 0 1440 409" fill="none" xmlns="http://www.w3.org/2000/svg">
<mask id="mask0" mask-type="alpha" maskUnits="userSpaceOnUse" x="0" y="0" width="1440" height="409">
<rect width="1440" height="409" fill="#C4C4C4"/>
</mask>
<g mask="url(#mask0)">
<path d="M257.991 324.531C126.716 249.733 23.9774 234.328 -10.9824 235.976V408.762H1363.99V356.247C1170.9 293.805 847.123 334.829 697.08 356.247C598.378 370.336 389.266 399.33 257.991 324.531Z" fill="url(#paint0_linear)"/>
<g filter="url(#filter0_f)">
<path d="M-32.0586 243.404V23C48.1797 23 155.13 143.639 198.575 169.605C374.529 273.405 606.689 255.583 707.28 221.829C1057.31 104.374 1188.95 138.919 1366 198.031V383.765C1261.63 348.072 1069.18 321.302 744.358 373.877C440.919 422.991 371.678 411.259 255.598 356.754C119.661 263.662 12.4051 242.117 -32.0586 243.404Z" fill="url(#paint1_linear)"/>
</g>
<path d="M-8.97461 241.227V86.0127C69.9388 86.0127 174.183 168.329 220.355 187.832C393.404 260.931 619.227 249.804 718.157 226.033C1062.4 143.318 1191.87 167.646 1366 209.274V340.073C1263.35 314.937 1074.08 296.084 754.623 333.109C456.194 367.697 388.096 359.434 273.932 321.051C111.963 266.595 34.7549 240.321 -8.97461 241.227Z" fill="url(#paint2_linear)"/>
<g filter="url(#filter1_f)">
<path d="M518.164 401.578C610.445 392.619 687.599 407.246 714.642 415.678H349.319C367.15 414.711 425.882 410.536 518.164 401.578Z" fill="#8CF7ED"/>
</g>
<g filter="url(#filter2_f)">
<path d="M-9.97852 239.319C27.6577 239.319 106.443 264.294 266.522 317.701C374.35 353.676 420.58 358.813 559.583 352.281" stroke="#27522F" stroke-opacity="0.2" stroke-width="0.5"/>
</g>
<g filter="url(#filter3_f)">
<path d="M42.5571 398.452C148.714 385.257 464.499 397.347 468.681 416.921L-34.1092 425.009C-34.6915 435.388 -63.5993 411.647 42.5571 398.452Z" fill="#BCF543" fill-opacity="0.36"/>
</g>
<rect x="-10.9824" y="408.762" width="763.764" height="13.8321" fill="white"/>
</g>
<defs>
<filter id="filter0_f" x="-46.0586" y="9" width="1426.06" height="409.92" filterUnits="userSpaceOnUse" color-interpolation-filters="sRGB">
<feFlood flood-opacity="0" result="BackgroundImageFix"/>
<feBlend mode="normal" in="SourceGraphic" in2="BackgroundImageFix" result="shape"/>
<feGaussianBlur stdDeviation="7" result="effect1_foregroundBlur"/>
</filter>
<filter id="filter1_f" x="341.319" y="390.772" width="381.322" height="32.9059" filterUnits="userSpaceOnUse" color-interpolation-filters="sRGB">
<feFlood flood-opacity="0" result="BackgroundImageFix"/>
<feBlend mode="normal" in="SourceGraphic" in2="BackgroundImageFix" result="shape"/>
<feGaussianBlur stdDeviation="4" result="effect1_foregroundBlur"/>
</filter>
<filter id="filter2_f" x="-14.9785" y="234.069" width="579.573" height="125.885" filterUnits="userSpaceOnUse" color-interpolation-filters="sRGB">
<feFlood flood-opacity="0" result="BackgroundImageFix"/>
<feBlend mode="normal" in="SourceGraphic" in2="BackgroundImageFix" result="shape"/>
<feGaussianBlur stdDeviation="2.5" result="effect1_foregroundBlur"/>
</filter>
<filter id="filter3_f" x="-46.1289" y="384.917" width="522.81" height="50.6461" filterUnits="userSpaceOnUse" color-interpolation-filters="sRGB">
<feFlood flood-opacity="0" result="BackgroundImageFix"/>
<feBlend mode="normal" in="SourceGraphic" in2="BackgroundImageFix" result="shape"/>
<feGaussianBlur stdDeviation="4" result="effect1_foregroundBlur"/>
</filter>
<linearGradient id="paint0_linear" x1="1363.99" y1="383.637" x2="11.3349" y2="305.563" gradientUnits="userSpaceOnUse">
<stop offset="0.274608" stop-color="#FBFBFB" stop-opacity="0"/>
<stop offset="0.769429" stop-color="#7AD9D3"/>
<stop offset="1" stop-color="#6EA893"/>
</linearGradient>
<linearGradient id="paint1_linear" x1="-32.0586" y1="217.427" x2="1366" y2="217.427" gradientUnits="userSpaceOnUse">
<stop stop-color="#409676"/>
<stop offset="0.40625" stop-color="#C1FFE8"/>
<stop offset="0.78125" stop-color="white"/>
</linearGradient>
<linearGradient id="paint2_linear" x1="-8.97461" y1="222.933" x2="1366" y2="222.933" gradientUnits="userSpaceOnUse">
<stop stop-color="#9ED6A8" stop-opacity="0.07"/>
<stop offset="0.374993" stop-color="#B6E0BE" stop-opacity="0.627157"/>
<stop offset="0.57813" stop-color="white" stop-opacity="0.75"/>
</linearGradient>
</defs>
</svg>
